<svg id="圖層_1" data-name="圖層 1" xmlns="http://www.w3.org/2000/svg" viewBox="0 0 500 500"><defs><style>.cls-1{font-size:62.14px;font-family:Bauhaus93, "Bauhaus 93";letter-spacing:0.16em;}.cls-1,.cls-2{fill:#db9d7f;}.cls-3{fill:none;stroke:#db9d7f;stroke-linecap:round;stroke-linejoin:round;stroke-width:12px;}</style></defs><text class="cls-1" transform="translate(54.82 371.81)">NTUniverse</text><path class="cls-2" d="M303.78,187.45h0m-2.24,1.31-1.07,55.57-45.1,26V215.74l46.17-27m1.5-5.68a3.14,3.14,0,0,0-1.56.43l-49.13,28.72a3.11,3.11,0,0,0-1.53,2.68v57.94a3.1,3.1,0,0,0,4.64,2.69l48-27.67a3.11,3.11,0,0,0,1.55-2.63l1.14-59a3.11,3.11,0,0,0-3.11-3.17Z"/><path class="cls-2" d="M247.05,148.59h0m-.7.38,46.7,26-46.54,26.76-47.29-26.77L246.35,149m0-4.76a3.18,3.18,0,0,0-1.5.38l-50.11,27.59a3.1,3.1,0,0,0,0,5.42L245,206.06a3.11,3.11,0,0,0,3.07,0l49.5-28.46a3.09,3.09,0,0,0,0-5.39l-49.67-27.6a3.05,3.05,0,0,0-1.5-.39Z"/><path class="cls-2" d="M191.17,188.69l47.1,27.08v54.62l-46-26.08-1.07-55.62m-1.5-5.65a3.11,3.11,0,0,0-3.11,3.16l1.14,59a3.1,3.1,0,0,0,1.57,2.63l48.93,27.73a3,3,0,0,0,1.52.41,3.11,3.11,0,0,0,3.11-3.1v-58a3.12,3.12,0,0,0-1.56-2.69l-50.06-28.78a3.15,3.15,0,0,0-1.54-.41Z"/><line class="cls-3" x1="245.38" y1="121" x2="245.38" y2="172.49"/><line class="cls-3" x1="166.17" y1="261.08" x2="210.76" y2="235.34"/><line class="cls-3" x1="280" y1="234.25" x2="324.59" y2="260"/></svg>