<svg id="圖層_1" data-name="圖層 1" xmlns="http://www.w3.org/2000/svg" viewBox="0 0 500 500"><defs><style>.cls-1{fill:#db9d7f;}.cls-2{fill:none;stroke:#db9d7f;stroke-linecap:round;stroke-linejoin:round;stroke-width:32.67px;}</style></defs><path class="cls-1" d="M409,219.9h0m-6.11,3.58L400,374.78,277.21,445.56V297L402.9,223.48M407,208a8.38,8.38,0,0,0-4.25,1.16L269,287.38a8.45,8.45,0,0,0-4.18,7.29V452.43a8.42,8.42,0,0,0,12.65,7.31l130.68-75.33a8.45,8.45,0,0,0,4.22-7.15l3.09-160.62A8.45,8.45,0,0,0,407,208Z"/><path class="cls-1" d="M254.55,114.1h0m-1.92,1.06,127.15,70.66L253.07,258.67,124.33,185.79l128.3-70.63m0-13a8.47,8.47,0,0,0-4.07,1L112.12,178.35a8.44,8.44,0,0,0-.09,14.74l136.9,77.5a8.46,8.46,0,0,0,8.36,0l134.77-77.48a8.44,8.44,0,0,0-.11-14.69L256.73,103.25a8.37,8.37,0,0,0-4.09-1.06Z"/><path class="cls-1" d="M102.41,223.29,230.64,297V445.74l-125.32-71-2.91-151.43M98.32,207.9a8.44,8.44,0,0,0-8.45,8.61L93,377.22a8.45,8.45,0,0,0,4.27,7.18l133.22,75.49a8.36,8.36,0,0,0,4.14,1.11,8.45,8.45,0,0,0,8.45-8.45V294.71a8.45,8.45,0,0,0-4.23-7.32L102.51,209a8.27,8.27,0,0,0-4.19-1.14Z"/><line class="cls-2" x1="250" y1="39" x2="250" y2="179.2"/><line class="cls-2" x1="34.34" y1="420.39" x2="155.75" y2="350.29"/><line class="cls-2" x1="344.25" y1="347.34" x2="465.66" y2="417.44"/></svg>