<svg id="圖層_1" data-name="圖層 1" xmlns="http://www.w3.org/2000/svg" viewBox="0 0 500 500"><defs><style>.cls-1{fill:#db9d7f;}.cls-2{fill:none;stroke:#db9d7f;stroke-linecap:round;stroke-linejoin:round;stroke-width:8.42px;}</style></defs><path class="cls-1" d="M291,242.24h0m-1.58.92-.75,39L257,300.42V262.11l32.4-19m1.06-4a2.15,2.15,0,0,0-1.1.3l-34.49,20.16a2.18,2.18,0,0,0-1.07,1.88V302.2a2.17,2.17,0,0,0,3.26,1.88l33.69-19.42a2.17,2.17,0,0,0,1.09-1.85l.8-41.41a2.18,2.18,0,0,0-2.18-2.22Z"/><path class="cls-1" d="M251.17,215h0m-.49.27,32.78,18.22-32.67,18.79-33.19-18.8,33.08-18.21m0-3.34a2.19,2.19,0,0,0-1.05.27l-35.18,19.37a2.17,2.17,0,0,0,0,3.79l35.29,20a2.19,2.19,0,0,0,1.07.28,2.22,2.22,0,0,0,1.09-.29l34.75-20a2.17,2.17,0,0,0,0-3.78l-34.86-19.38a2.23,2.23,0,0,0-1.06-.27Z"/><path class="cls-1" d="M211.94,243.11l33.07,19v38.35l-32.32-18.31-.75-39.05m-1.05-4a2.19,2.19,0,0,0-2.18,2.23l.8,41.43a2.16,2.16,0,0,0,1.1,1.85L245,304.12a2.1,2.1,0,0,0,1.07.29,2.18,2.18,0,0,0,2.18-2.18v-40.7a2.19,2.19,0,0,0-1.09-1.89L212,239.44a2.18,2.18,0,0,0-1.08-.3Z"/><line class="cls-2" x1="250" y1="195.59" x2="250" y2="231.74"/><line class="cls-2" x1="194.39" y1="293.93" x2="225.7" y2="275.86"/><line class="cls-2" x1="274.3" y1="275.1" x2="305.61" y2="293.17"/></svg>